0
SECTION
2
HEADER
9
$INSUNITS
70
4
9
$ACADVER
1
AC1014
9
$HANDSEED
5
FFFF
0
ENDSEC
0
SECTION
2
TABLES
0
TABLE
2
VPORT
5
8
100
AcDbSymbolTable
0
ENDTAB
0
TABLE
2
LTYPE
5
5
100
AcDbSymbolTable
0
LTYPE
5
14
100
AcDbSymbolTableRecord
100
AcDbLinetypeTableRecord
2
BYBLOCK
70
0
0
LTYPE
5
15
100
AcDbSymbolTableRecord
100
AcDbLinetypeTableRecord
2
BYLAYER
70
0
0
ENDTAB
0
TABLE
2
LAYER
5
2
100
AcDbSymbolTable
70
2
0
LAYER
5
50
100
AcDbSymbolTableRecord
100
AcDbLayerTableRecord
2
0
70
0
6
CONTINUOUS
0
ENDTAB
0
TABLE
2
STYLE
5
3
100
AcDbSymbolTable
70
1
0
STYLE
5
11
100
AcDbSymbolTableRecord
100
AcDbTextStyleTableRecord
2
STANDARD
70
0
0
ENDTAB
0
TABLE
2
VIEW
5
6
100
AcDbSymbolTable
70
0
0
ENDTAB
0
TABLE
2
UCS
5
7
100
AcDbSymbolTable
70
0
0
ENDTAB
0
TABLE
2
APPID
5
9
100
AcDbSymbolTable
70
2
0
APPID
5
12
100
AcDbSymbolTableRecord
100
AcDbRegAppTableRecord
2
ACAD
70
0
0
ENDTAB
0
TABLE
2
DIMSTYLE
5
A
100
AcDbSymbolTable
70
1
0
ENDTAB
0
TABLE
2
BLOCK_RECORD
5
1
100
AcDbSymbolTable
70
1
0
BLOCK_RECORD
5
1F
100
AcDbSymbolTableRecord
100
AcDbBlockTableRecord
2
*MODEL_SPACE
0
BLOCK_RECORD
5
1B
100
AcDbSymbolTableRecord
100
AcDbBlockTableRecord
2
*PAPER_SPACE
0
ENDTAB
0
ENDSEC
0
SECTION
2
BLOCKS
0
BLOCK
5
20
100
AcDbEntity
100
AcDbBlockBegin
2
*MODEL_SPACE
0
ENDBLK
5
21
100
AcDbEntity
100
AcDbBlockEnd
0
BLOCK
5
1C
100
AcDbEntity
100
AcDbBlockBegin
2
*PAPER_SPACE
0
ENDBLK
5
1D
100
AcDbEntity
100
AcDbBlockEnd
0
ENDSEC
0
SECTION
2
ENTITIES
0
LWPOLYLINE
5
100
100
AcDbEntity
8
0
100
AcDbPolyline
90
30
70
1
43
0.0
10
-23.368546947151181
20
-477.22931348302893
10
-23.368546947151199
20
-452.97528017544198
42
-0.3419987131198397
10
-21.868546947149863
20
-451.03878850233792
42
0.34199871311921787
10
-20.368546947152595
20
-449.10229682923591
10
-20.368546947152719
20
-447.10229682922795
42
-0.41421356237309503
10
-18.368546947152691
20
-445.1022968292279
10
-2.3690174265343877
20
-445.10229682922795
42
0.41421356237309503
10
-0.36901742653439484
20
-443.10229682922795
10
-0.36901742653340008
20
-420.06594413410591
42
0.19891236737965634
10
-0.95480386416129548
20
-418.6517305717328
10
-1.7832309889064035
20
-417.82330344698789
42
0.1989123673796564
10
-3.197444551279407
20
-417.23751700936089
10
-13.290064434169402
20
-417.23751700936089
42
0.19891236737965801
10
-14.704277996542494
20
-417.82330344698784
10
-36.284487178739553
20
-439.40351262918574
42
-0.19891236737972079
10
-37.698700741113015
20
-439.98929906681298
10
-67.757115180048203
20
-439.98929906681207
42
0.19891236737960499
10
-69.171328742421011
20
-440.57508550443964
10
-83.782167583258925
20
-455.18592434527676
42
-0.19813695983836194
10
-85.190413107337491
20
-455.77170187851391
10
-113.24187986822571
20
-455.85540836511905
42
0.19852463489939523
10
-114.65223384073722
20
-456.44329749496933
10
-116.48486895796017
20
-458.28140941410504
42
0.19852463489940758
10
-117.06854694715344
20
-459.69351137986598
10
-117.06854694715302
20
-483.10229682922801
42
0.41421356237309503
10
-115.06854694715338
20
-485.10229682922807
10
-22.368546947152677
20
-485.10229682922795
42
0.41421356237309503
10
-20.368546947152684
20
-483.10229682922795
10
-20.368546947152684
20
-481.10229682923591
42
0.341998713119255
10
-21.86854694714998
20
-479.16580515613299
42
-0.34199871311982044
0
CIRCLE
5
101
100
AcDbEntity
8
0
100
AcDbCircle
10
-10.333092462715392
20
-429.22951055515392
30
3.8400672508487332e-06
40
2.6500000000000004
210
-2.5981188691955282e-21
220
6.6857403351032595e-22
230
1
0
CIRCLE
5
102
100
AcDbEntity
8
0
100
AcDbCircle
10
-42.812961022714376
20
-477.08687032186288
30
3.8400677482286483e-06
40
1.6000000000000003
210
-2.5981188944390772e-21
220
6.6857403351032595e-22
230
1
0
CIRCLE
5
103
100
AcDbEntity
8
0
100
AcDbCircle
10
-35.129564524573297
20
-458.30538266246691
30
3.8400672508487332e-06
40
1.6000000000000003
210
-2.5981188944390772e-21
220
6.6857403351032595e-22
230
1
0
CIRCLE
5
104
100
AcDbEntity
8
0
100
AcDbCircle
10
-42.812961034423004
20
-448.29788146081995
30
3.8400677482286483e-06
40
1.6000000000000003
210
-2.5981188944390772e-21
220
6.6857403351032595e-22
230
1
0
CIRCLE
5
105
100
AcDbEntity
8
0
100
AcDbCircle
10
-78.970184958138987
20
-458.30538266246697
30
3.840067464011554e-06
40
1.6000000000000003
210
-2.5981188944390772e-21
220
6.6857403351032595e-22
230
1
0
CIRCLE
5
106
100
AcDbEntity
8
0
100
AcDbCircle
10
-57.049874741356192
20
-480.22569287925
30
3.8400668245230918e-06
40
1.6000000000000003
210
-2.5981188944390772e-21
220
6.6857403351032595e-22
230
1
0
CIRCLE
5
107
100
AcDbEntity
8
0
100
AcDbCircle
10
-109.08669123355691
20
-471.29636783180001
30
3.8400723667564307e-06
40
2.6500000000000004
210
-2.5981188691955282e-21
220
6.6857403351032595e-22
230
1
0
CIRCLE
5
108
100
AcDbEntity
8
0
100
AcDbCircle
10
-96.086691234921901
20
-471.29620260418301
30
3.8400720114850628e-06
40
2.6500000000000004
210
-2.5981188691955282e-21
220
6.6857403351032595e-22
230
1
0
CIRCLE
5
109
100
AcDbEntity
8
0
100
AcDbCircle
10
-57.049874741357193
20
-458.30538266247697
30
3.8400578716846212e-06
40
11.500000000000002
210
-2.5981188944390772e-21
220
6.6857403351032595e-22
230
1
0
LWPOLYLINE
5
110
100
AcDbEntity
8
0
100
AcDbPolyline
90
30
70
1
43
0.0
10
-23.368546947151181
20
-477.22931348302893
10
-23.368546947151209
20
-452.97528017544198
42
-0.34199871311984203
10
-21.868546947149863
20
-451.03878850233792
42
0.34199871311920021
10
-20.368546947152545
20
-449.10229682923591
10
-20.368546947152719
20
-447.10229682922795
42
-0.41421356237309503
10
-18.368546947152691
20
-445.1022968292279
10
-2.3690174265343877
20
-445.10229682922795
42
0.41421356237310542
10
-0.36901742653443037
20
-443.10229682922795
10
-0.36901742653339398
20
-420.06594413410591
42
0.19891236737967524
10
-0.95480386416130381
20
-418.6517305717328
10
-1.783230988906404
20
-417.82330344698789
42
0.19891236737960136
10
-3.1974445512794087
20
-417.23751700936089
10
-13.290064434169402
20
-417.23751700936089
42
0.19891236737959761
10
-14.70427799654251
20
-417.82330344698784
10
-36.284487178739553
20
-439.40351262918574
42
-0.19891236737972079
10
-37.698700741113015
20
-439.98929906681298
10
-67.757115180048203
20
-439.98929906681201
42
0.1989123673795456
10
-69.171328742421025
20
-440.57508550443958
10
-83.782167583258911
20
-455.18592434527676
42
-0.19813695983835952
10
-85.190413107337477
20
-455.77170187851391
10
-113.24187986822571
20
-455.85540836511905
42
0.19852463489939393
10
-114.65223384073722
20
-456.44329749496933
10
-116.48486895796017
20
-458.28140941410504
42
0.19852463489940425
10
-117.06854694715341
20
-459.69351137986598
10
-117.06854694715302
20
-483.10229682922801
42
0.41421356237308721
10
-115.06854694715338
20
-485.10229682922807
10
-22.368546947152677
20
-485.10229682922795
42
0.41421356237310542
10
-20.368546947152719
20
-483.10229682922795
10
-20.368546947152684
20
-481.10229682923591
42
0.34199871311927982
10
-21.868546947149973
20
-479.16580515613299
42
-0.341998713119821
0
CIRCLE
5
111
100
AcDbEntity
8
0
100
AcDbCircle
10
-10.333092462715392
20
-429.22951055515392
30
0
40
2.6500000000000004
210
-2.5243548967072327e-29
220
-1.0146749555207538e-28
230
1
0
CIRCLE
5
112
100
AcDbEntity
8
0
100
AcDbCircle
10
-42.812961022714376
20
-477.08687032186288
30
0
40
1.6000000000000003
210
2.5243548967072428e-29
220
-1.0146749564611489e-28
230
1
0
CIRCLE
5
113
100
AcDbEntity
8
0
100
AcDbCircle
10
-35.129564524573297
20
-458.30538266246691
30
0
40
1.6000000000000003
210
2.5243548967072428e-29
220
-1.0146749564611489e-28
230
1
0
CIRCLE
5
114
100
AcDbEntity
8
0
100
AcDbCircle
10
-42.812961034423004
20
-448.29788146081995
30
0
40
1.6000000000000003
210
2.5243548967072428e-29
220
-1.0146749564611489e-28
230
1
0
CIRCLE
5
115
100
AcDbEntity
8
0
100
AcDbCircle
10
-78.970184958138987
20
-458.30538266246697
30
7.1054273576010019e-14
40
1.6000000000000003
210
2.5243548967072428e-29
220
-1.0146749564611489e-28
230
1
0
CIRCLE
5
116
100
AcDbEntity
8
0
100
AcDbCircle
10
-57.049874741356192
20
-480.22569287925
30
0
40
1.6000000000000003
210
2.5243548967072428e-29
220
-1.0146749564611489e-28
230
1
0
CIRCLE
5
117
100
AcDbEntity
8
0
100
AcDbCircle
10
-109.08669123355691
20
-471.29636783180001
30
0
40
2.6500000000000004
210
-2.5243548967072327e-29
220
-1.0146749555207538e-28
230
1
0
CIRCLE
5
118
100
AcDbEntity
8
0
100
AcDbCircle
10
-96.086691234921901
20
-471.29620260418301
30
0
40
2.6500000000000004
210
-2.5243548967072327e-29
220
-1.0146749555207538e-28
230
1
0
CIRCLE
5
119
100
AcDbEntity
8
0
100
AcDbCircle
10
-57.049874741357193
20
-458.30538266247697
30
0
40
11.500000000000002
210
-2.5243548967072322e-29
220
-1.0146749545803584e-28
230
1
0
ENDSEC
0
SECTION
2
OBJECTS
0
DICTIONARY
5
C
100
AcDbDictionary
3
ACAD_GROUP
350
D
3
ACAD_MLINESTYLE
350
17
0
DICTIONARY
5
D
100
AcDbDictionary
0
DICTIONARY
5
1A
330
C
100
AcDbDictionary
0
DICTIONARY
5
17
100
AcDbDictionary
0
ENDSEC
0
EOF
