0
SECTION
2
HEADER
9
$INSUNITS
70
4
9
$ACADVER
1
AC1014
9
$HANDSEED
5
FFFF
0
ENDSEC
0
SECTION
2
TABLES
0
TABLE
2
VPORT
5
8
100
AcDbSymbolTable
0
ENDTAB
0
TABLE
2
LTYPE
5
5
100
AcDbSymbolTable
0
LTYPE
5
14
100
AcDbSymbolTableRecord
100
AcDbLinetypeTableRecord
2
BYBLOCK
70
0
0
LTYPE
5
15
100
AcDbSymbolTableRecord
100
AcDbLinetypeTableRecord
2
BYLAYER
70
0
0
ENDTAB
0
TABLE
2
LAYER
5
2
100
AcDbSymbolTable
70
2
0
LAYER
5
50
100
AcDbSymbolTableRecord
100
AcDbLayerTableRecord
2
0
70
0
6
CONTINUOUS
0
ENDTAB
0
TABLE
2
STYLE
5
3
100
AcDbSymbolTable
70
1
0
STYLE
5
11
100
AcDbSymbolTableRecord
100
AcDbTextStyleTableRecord
2
STANDARD
70
0
0
ENDTAB
0
TABLE
2
VIEW
5
6
100
AcDbSymbolTable
70
0
0
ENDTAB
0
TABLE
2
UCS
5
7
100
AcDbSymbolTable
70
0
0
ENDTAB
0
TABLE
2
APPID
5
9
100
AcDbSymbolTable
70
2
0
APPID
5
12
100
AcDbSymbolTableRecord
100
AcDbRegAppTableRecord
2
ACAD
70
0
0
ENDTAB
0
TABLE
2
DIMSTYLE
5
A
100
AcDbSymbolTable
70
1
0
ENDTAB
0
TABLE
2
BLOCK_RECORD
5
1
100
AcDbSymbolTable
70
1
0
BLOCK_RECORD
5
1F
100
AcDbSymbolTableRecord
100
AcDbBlockTableRecord
2
*MODEL_SPACE
0
BLOCK_RECORD
5
1B
100
AcDbSymbolTableRecord
100
AcDbBlockTableRecord
2
*PAPER_SPACE
0
ENDTAB
0
ENDSEC
0
SECTION
2
BLOCKS
0
BLOCK
5
20
100
AcDbEntity
100
AcDbBlockBegin
2
*MODEL_SPACE
0
ENDBLK
5
21
100
AcDbEntity
100
AcDbBlockEnd
0
BLOCK
5
1C
100
AcDbEntity
100
AcDbBlockBegin
2
*PAPER_SPACE
0
ENDBLK
5
1D
100
AcDbEntity
100
AcDbBlockEnd
0
ENDSEC
0
SECTION
2
ENTITIES
0
LWPOLYLINE
5
100
100
AcDbEntity
8
0
100
AcDbPolyline
90
30
70
1
43
0.0
10
-21.868543260055553
20
-451.03878862998147
42
0.34199871311963759
10
-20.36854326005562
20
-449.10229695687775
10
-20.368543260055638
20
-447.10229695687769
42
-0.41421356237309503
10
-18.36854326005561
20
-445.10229695687769
10
-2.3270137394360191
20
-445.10229695687775
42
0.41421356237309503
10
-0.32701373943602619
20
-443.10229695687775
10
-0.32701373943602619
20
-420.06594426175684
42
0.19891236737965801
10
-0.91280017706292682
20
-418.65173069938373
10
-1.7412273018090116
20
-417.82330357463678
42
0.19891236737956502
10
-3.1554408641820153
20
-417.23751713701074
10
-13.29003754244102
20
-417.23751713701074
42
0.19891236737956658
10
-14.704251104813615
20
-417.82330357463718
10
-36.284462524617545
20
-439.40351499444085
42
-0.19891236737966447
10
-37.698676086990695
20
-439.9893014320678
10
-67.757100434408102
20
-439.9893014320678
42
0.19891235757478615
10
-69.171313943427464
20
-440.5750878163409
10
-83.782388438467535
20
-455.18616120892665
42
-0.19818915314449934
10
-85.191035752498308
20
-455.77193984755309
10
-113.24175691641327
20
-455.85000804168271
42
0.19855074018610214
10
-114.65237086356366
20
-456.43775605193065
10
-116.48472340219467
20
-458.27521532247579
42
0.19855074018604896
10
-117.06854326005572
20
-459.68745956658177
10
-117.0685432600557
20
-483.10229695687678
42
0.41421356237309243
10
-115.06854326005572
20
-485.10229695687684
10
-22.36854326005572
20
-485.10229695687775
42
0.41421356237309503
10
-20.368543260055727
20
-483.10229695687775
10
-20.368543260055709
20
-481.10229695687781
42
0.34199871311965929
10
-21.86854326005566
20
-479.16580528377347
42
-0.34199871311965263
10
-23.368543260055699
20
-477.22931361066975
10
-23.368543260055304
20
-452.97528030308479
42
-0.34199871311965402
0
CIRCLE
5
101
100
AcDbEntity
8
0
100
AcDbCircle
10
-57.049871054249493
20
-458.3053827901507
30
-4.3670235072568175e-06
40
6.5500000000000007
210
3.7952924114914257e-21
220
-4.2137390216502093e-22
230
1
0
CIRCLE
5
102
100
AcDbEntity
8
0
100
AcDbCircle
10
-10.333088775618009
20
-429.22951068280378
30
-4.3670219440627989e-06
40
2.6500000000000004
210
3.7952924115160776e-21
220
-4.2137390216502093e-22
230
1
0
CIRCLE
5
103
100
AcDbEntity
8
0
100
AcDbCircle
10
-96.086687547824212
20
-471.29620273183275
30
-4.3670218019542517e-06
40
2.6500000000000004
210
3.7952924115160776e-21
220
-4.2137390216502093e-22
230
1
0
CIRCLE
5
104
100
AcDbEntity
8
0
100
AcDbCircle
10
-109.08668754645923
20
-471.29636795944975
30
-4.3670198124345916e-06
40
2.6500000000000004
210
3.7952924115160776e-21
220
-4.2137390216502093e-22
230
1
0
CIRCLE
5
105
100
AcDbEntity
8
0
100
AcDbCircle
10
-42.812957347332194
20
-448.29788158845275
30
-4.3670242177995533e-06
40
1.6000000000000003
210
3.7952924114667738e-21
220
-4.2137390216502093e-22
230
1
0
CIRCLE
5
106
100
AcDbEntity
8
0
100
AcDbCircle
10
-42.812957335623601
20
-477.08687044949579
30
-4.3670246441251948e-06
40
1.6000000000000003
210
3.7952924114667738e-21
220
-4.2137390216502093e-22
230
1
0
LWPOLYLINE
5
107
100
AcDbEntity
8
0
100
AcDbPolyline
90
30
70
1
43
0.0
10
-21.868543260055535
20
-451.03878862998147
42
0.34199871311964242
10
-20.368543260055571
20
-449.10229695687775
10
-20.36854326005562
20
-447.10229695687769
42
-0.41421356237309503
10
-18.368543260055592
20
-445.10229695687769
10
-2.3270137394360013
20
-445.10229695687775
42
0.41421356237307411
10
-0.32701373943597428
20
-443.10229695687775
10
-0.32701373943600787
20
-420.06594426175684
42
0.19891236737965892
10
-0.91280017706290739
20
-418.65173069938373
10
-1.7412273018089941
20
-417.82330357463678
42
0.19891236737951806
10
-3.155440864181998
20
-417.23751713701085
10
-13.290037542441002
20
-417.23751713701074
42
0.19891236737952683
10
-14.704251104813599
20
-417.82330357463718
10
-36.284462524617538
20
-439.40351499444085
42
-0.19891236737966284
10
-37.698676086990673
20
-439.9893014320678
10
-67.757100434408088
20
-439.9893014320678
42
0.19891235757478037
10
-69.17131394342745
20
-440.5750878163409
10
-83.782388438467521
20
-455.18616120892659
42
-0.19818915314450095
10
-85.191035752498294
20
-455.77193984755309
10
-113.24175691641324
20
-455.85000804168271
42
0.19855074018610999
10
-114.65237086356365
20
-456.43775605193065
10
-116.48472340219465
20
-458.27521532247579
42
0.19855074018608201
10
-117.06854326005569
20
-459.68745956658177
10
-117.06854326005569
20
-483.10229695687678
42
0.41421356237310802
10
-115.06854326005568
20
-485.10229695687684
10
-22.368543260055702
20
-485.10229695687775
42
0.41421356237307422
10
-20.368543260055674
20
-483.10229695687775
10
-20.368543260055691
20
-481.10229695687781
42
0.34199871311965746
10
-21.868543260055652
20
-479.16580528377347
42
-0.34199871311965141
10
-23.368543260055677
20
-477.22931361066975
10
-23.368543260055343
20
-452.97528030308479
42
-0.34199871311964414
0
CIRCLE
5
108
100
AcDbEntity
8
0
100
AcDbCircle
10
-57.049871054249479
20
-458.3053827901507
30
0
40
6.5500000000000007
210
9.0965523133298176e-30
220
-5.048709793414475e-29
230
1
0
CIRCLE
5
109
100
AcDbEntity
8
0
100
AcDbCircle
10
-10.333088775617991
20
-429.22951068280378
30
0
40
2.6500000000000004
210
9.121204216617949e-30
220
-2.5316427290351084e-46
230
1
0
CIRCLE
5
110
100
AcDbEntity
8
0
100
AcDbCircle
10
-96.086687547824198
20
-471.29620273183275
30
0
40
2.6500000000000004
210
9.121204216617949e-30
220
-2.5316427290351084e-46
230
1
0
CIRCLE
5
111
100
AcDbEntity
8
0
100
AcDbCircle
10
-109.08668754645922
20
-471.29636795944975
30
0
40
2.6500000000000004
210
9.121204216617949e-30
220
-2.5316427290351084e-46
230
1
0
CIRCLE
5
112
100
AcDbEntity
8
0
100
AcDbCircle
10
-42.812957347332173
20
-448.29788158845275
30
0
40
1.6000000000000003
210
9.0719004100416358e-30
220
-4.9010139941073018e-56
230
1
0
CIRCLE
5
113
100
AcDbEntity
8
0
100
AcDbCircle
10
-42.812957335623587
20
-477.08687044949579
30
0
40
1.6000000000000003
210
9.0719004100416358e-30
220
-4.9010139941073018e-56
230
1
0
ENDSEC
0
SECTION
2
OBJECTS
0
DICTIONARY
5
C
100
AcDbDictionary
3
ACAD_GROUP
350
D
3
ACAD_MLINESTYLE
350
17
0
DICTIONARY
5
D
100
AcDbDictionary
0
DICTIONARY
5
1A
330
C
100
AcDbDictionary
0
DICTIONARY
5
17
100
AcDbDictionary
0
ENDSEC
0
EOF
